# xmcd
#
# Track frame offsets: 
#        180
#        30703
#        57382
#        73867
#        96656
#        116669
#
# Disc length: 1913 seconds
#
# Revision: 1
# Processed by: cddbd v1.5.2PL0 Copyright (c) Steve Scherf et al.
# Submitted via: ExactAudioCopy v1.0b3
#
DISCID=59077706
DTITLE=A R Rahman - Merupu Kalalu
DYEAR=1997
DGENRE=Soundtrack
TTITLE0=Oh Vaana Padithe
TTITLE1=Machili Patnam Mamidi
TTITLE2=Aparanji Madanudi
TTITLE3=Tallo Tamara
TTITLE4=Straw Berry Kanne
TTITLE5=Vennelave Vennelave
EXTD=
EXTT0=
EXTT1=
EXTT2=
EXTT3=
EXTT4=
EXTT5=
PLAYORDER=
